<?xml version="1.0" standalone="no"?>
<!DOCTYPE svg PUBLIC "-//W3C//DTD SVG 20010904//EN"
 "http://www.w3.org/TR/2001/REC-SVG-20010904/DTD/svg10.dtd">
<svg version="1.0" xmlns="http://www.w3.org/2000/svg"
 width="300.000000pt" height="73.000000pt" viewBox="0 0 300.000000 73.000000"
 preserveAspectRatio="xMidYMid meet">
<metadata>
Created by potrace 1.10, written by Peter Selinger 2001-2011
</metadata>
<g transform="translate(0.000000,73.000000) scale(0.100000,-0.100000)"
fill="#000000" stroke="none">
<path d="M206 618 c-71 -331 -104 -512 -94 -523 13 -14 26 12 34 65 3 25 13
69 21 98 14 50 16 52 48 52 19 0 45 4 59 10 l26 10 2 -68 c1 -37 1 -98 -1
-136 -3 -60 -1 -68 13 -63 9 4 16 2 16 -3 0 -6 5 -10 11 -10 8 0 9 39 4 133
-4 72 -9 140 -11 150 -1 9 2 17 8 17 7 0 7 4 0 13 -5 6 -13 39 -16 72 -12 103
-47 233 -65 239 -9 3 -21 9 -28 12 -7 3 -17 -20 -27 -68z m56 -5 c17 -47 38
-170 38 -215 0 -21 -5 -23 -56 -25 -47 -1 -55 1 -49 14 3 9 11 48 18 86 6 38
17 71 23 74 12 4 7 53 -5 53 -4 0 -8 6 -8 14 0 9 7 12 16 9 13 -5 14 -3 4 8
-15 15 -17 29 -5 29 4 0 15 -21 24 -47z m38 -263 c0 -5 -6 -10 -14 -10 -8 0
-21 -3 -30 -6 -11 -4 -16 -1 -16 10 0 11 9 16 30 16 17 0 30 -4 30 -10z"/>
<path d="M1839 611 c-14 -10 -39 -49 -58 -85 -18 -36 -39 -66 -46 -66 -10 0
-13 -20 -12 -81 1 -80 0 -82 -31 -109 -24 -20 -29 -29 -20 -38 15 -15 28 -15
28 -1 0 5 -6 7 -12 3 -7 -4 -5 1 4 11 25 27 30 14 17 -36 -19 -73 -23 -142 -8
-137 20 7 35 74 38 165 1 39 5 45 44 69 47 30 147 127 165 161 7 12 12 44 12
72 0 42 -4 53 -26 70 -33 26 -64 27 -95 2z m88 -31 c29 -57 4 -116 -84 -201
-65 -63 -93 -78 -93 -51 1 74 50 213 91 258 27 29 70 26 86 -6z"/>
<path d="M2256 538 c-3 -13 -6 -37 -6 -54 0 -79 -8 -90 -71 -108 -59 -16 -73
-29 -43 -40 22 -8 24 -8 24 8 0 11 57 30 67 22 2 -2 -19 -48 -54 -122 -24 -49
-86 -124 -103 -124 -24 0 -19 103 10 200 12 43 13 40 -4 40 -8 0 -21 -25 -32
-62 -25 -82 -103 -176 -148 -178 -13 0 3 70 27 115 26 47 96 114 115 108 6 -3
12 2 12 11 0 28 -27 17 -83 -34 -60 -55 -97 -121 -97 -174 0 -68 65 -53 129
28 l31 39 0 -46 c0 -44 18 -77 41 -77 29 0 126 129 133 176 1 7 6 17 10 21 5
4 5 -8 2 -27 -10 -47 -10 -78 -2 -123 10 -54 43 -51 106 11 51 48 65 81 41 90
-9 3 -11 0 -6 -8 5 -9 -10 -29 -46 -62 -29 -26 -57 -48 -61 -48 -23 0 -15 176
11 243 10 25 15 27 68 27 47 1 54 3 39 11 -10 6 -35 8 -56 5 l-38 -6 2 60 c0
33 4 60 9 60 4 0 7 9 7 20 0 27 -26 25 -34 -2z"/>
<path d="M1297 508 c-2 -7 3 -23 11 -35 8 -13 10 -23 4 -23 -5 0 -10 -23 -10
-50 0 -59 -11 -76 -57 -84 -21 -4 -35 -13 -35 -21 0 -20 24 -19 40 0 7 9 15
13 18 10 3 -3 11 0 18 6 10 8 10 1 -1 -33 -23 -74 -32 -92 -70 -130 -43 -43
-68 -48 -89 -15 -32 50 -31 75 7 112 54 52 56 145 4 145 -36 0 -56 -29 -63
-93 -4 -31 -11 -57 -15 -57 -14 0 -10 -20 6 -36 8 -9 18 -27 21 -42 9 -35 42
-72 66 -72 26 0 60 19 76 42 7 10 18 15 24 12 7 -4 8 -2 4 4 -4 7 0 22 8 34
16 22 16 22 17 -15 1 -20 3 -41 4 -47 1 -5 3 -14 4 -20 3 -24 45 -7 91 36 41
38 50 53 50 80 0 19 -4 34 -10 34 -5 0 -10 -9 -10 -21 0 -31 -27 -72 -65 -96
l-34 -22 -7 45 c-8 56 11 155 33 171 9 7 38 16 65 19 27 4 45 11 42 16 -7 11
-67 6 -97 -7 -16 -7 -17 -2 -12 52 6 58 -6 113 -24 113 -5 0 -11 -6 -14 -12z
m-147 -164 c0 -36 -29 -94 -47 -94 -13 0 -15 9 -9 48 8 63 56 102 56 46z"/>
<path d="M824 453 c4 -21 9 -100 13 -175 3 -76 9 -138 13 -138 9 0 28 45 34
81 5 28 45 112 70 144 23 30 19 12 -11 -50 l-27 -55 23 -16 c27 -20 83 -105
101 -156 17 -47 32 -40 18 10 -11 38 -67 131 -93 152 -20 16 -19 33 4 78 21
42 38 132 25 132 -15 0 -35 -40 -28 -53 4 -7 4 -9 -1 -5 -7 7 -75 -83 -75
-100 0 -4 -6 -16 -13 -27 -12 -16 -14 -12 -16 36 -5 144 -11 179 -33 179 -7 0
-8 -13 -4 -37z"/>
<path d="M636 465 c-12 -31 -6 -65 14 -85 17 -17 24 -18 41 -10 27 15 43 53
35 84 -9 35 -30 34 -23 -1 10 -50 -37 -87 -49 -39 -7 31 2 47 23 39 11 -4 14
-2 11 8 -7 20 -44 23 -52 4z"/>
<path d="M2551 404 c-38 -33 -45 -35 -67 -25 -32 14 -94 14 -94 0 0 -6 7 -17
15 -25 13 -14 15 -14 15 0 0 18 18 20 54 6 l26 -9 -20 -33 c-26 -46 -35 -127
-16 -152 15 -18 16 -18 41 -2 49 32 68 111 41 164 -14 26 -13 29 22 58 21 17
42 33 49 37 19 12 43 -22 43 -59 0 -21 4 -33 10 -29 14 9 13 78 -2 93 -24 24
-73 14 -117 -24z m-17 -109 c5 -25 1 -45 -14 -75 -24 -46 -36 -50 -43 -15 -5
28 31 137 43 130 4 -3 11 -20 14 -40z"/>
<path d="M2775 379 c-11 -5 -28 -22 -38 -37 -9 -15 -31 -46 -48 -70 -37 -52
-51 -139 -25 -161 21 -18 48 -7 95 39 33 32 41 36 41 21 0 -10 8 -29 18 -40
16 -21 20 -22 77 -9 40 9 60 18 61 28 1 26 -8 32 -24 16 -10 -8 -33 -17 -54
-21 -32 -6 -37 -4 -44 17 -11 34 -6 71 17 124 13 31 18 58 14 76 -6 24 -11 28
-38 27 -18 0 -41 -5 -52 -10z m55 -35 c0 -3 -7 -29 -15 -57 -17 -58 -76 -132
-114 -142 -23 -7 -23 -6 -9 21 8 16 32 64 54 107 31 62 43 77 61 77 13 0 23
-3 23 -6z m-124 -96 c-2 -13 -11 -39 -19 -58 l-15 -35 2 30 c3 28 25 85 33 85
2 0 2 -10 -1 -22z"/>
<path d="M469 368 c-1 -5 -1 -210 0 -240 1 -18 7 -28 16 -28 12 0 15 15 16 73
1 39 0 87 -1 105 -1 17 3 32 9 32 5 0 11 8 13 17 6 30 43 -21 63 -85 26 -83
43 -112 65 -112 20 0 40 27 40 54 0 25 -18 19 -22 -6 -5 -38 -22 -26 -44 32
-55 140 -78 166 -114 130 -20 -20 -20 -20 -20 -1 0 16 -18 41 -21 29z"/>
<path d="M698 268 c-4 -71 0 -100 14 -96 5 2 11 38 13 81 3 61 1 77 -10 77 -9
0 -14 -18 -17 -62z"/>
</g>
</svg>
